
        <svg xmlns="http://www.w3.org/2000/svg" xmlns:xlink="http://www.w3.org/1999/xlink" version="1.1" width="3158.7301587301586" 
        height="1015.8730158730159" viewBox="0 0 3158.7301587301586 1015.8730158730159">
			
			<g transform="scale(7.936507936507937) translate(10, 10)">
				<defs id="SvgjsDefs5782"></defs><g id="SvgjsG5783" featureKey="symbolFeature-0" transform="matrix(1.6875,0,0,1.6875,18.000509615521878,0)" fill="#d23535"><g xmlns="http://www.w3.org/2000/svg"><path d="M63.832,35.445l-4-6c-0.371-0.557-1.293-0.557-1.664,0l-4,6c-0.205,0.307-0.224,0.701-0.05,1.026S54.631,37,55,37h0.813   C54.328,48.86,44.072,58,32,58c-9.851,0-18.852-6.173-22.398-15.36L7.736,43.36C11.578,53.312,21.329,60,32,60   c13.472,0,24.856-10.508,25.918-23.921c0.021-0.278-0.073-0.553-0.263-0.758S57.2,35,56.921,35h-0.053L59,31.803L61.132,35h-0.2   c-0.526,0-0.962,0.407-0.998,0.932C58.938,50.55,46.668,62,32,62C19.841,62,9.141,54.239,5.374,42.688l-1.901,0.619   C7.508,55.685,18.973,64,32,64c15.403,0,28.338-11.784,29.852-27H63c0.369,0,0.708-0.203,0.882-0.528S64.036,35.752,63.832,35.445z   "></path><path d="M61.717,25.862c-0.395-2.865-1.203-5.651-2.4-8.281l-1.82,0.828c1.117,2.454,1.871,5.054,2.24,7.727L61.717,25.862z"></path><path d="M5,35c0.334,0,0.646-0.167,0.832-0.445l4-6c0.205-0.307,0.224-0.701,0.05-1.026C9.708,27.203,9.369,27,9,27H8.186   C9.672,15.14,19.928,6,32,6c7.62,0,14.619,3.5,19.203,9.602l1.6-1.201C47.837,7.791,40.255,4,32,4   C18.528,4,7.144,14.508,6.082,27.921c-0.022,0.278,0.073,0.553,0.263,0.758C6.533,28.884,6.8,29,7.079,29h0.053L5,32.197L2.869,29   h0.199c0.526,0,0.962-0.407,0.998-0.932C5.061,13.45,17.332,2,32,2c8.17,0,15.912,3.557,21.241,9.757l1.518-1.303   C49.048,3.811,40.753,0,32,0C16.597,0,3.661,11.784,2.148,27H1c-0.369,0-0.708,0.203-0.882,0.528   c-0.174,0.325-0.155,0.72,0.05,1.026l4,6C4.354,34.833,4.666,35,5,35z"></path><path d="M54.744,22.318c0.421,1.245,0.741,2.537,0.95,3.84l1.975-0.316c-0.227-1.413-0.573-2.813-1.03-4.164L54.744,22.318z"></path><path d="M52,43V30c0-0.553-0.447-1-1-1H39c-0.553,0-1,0.447-1,1v4h2v-3h10v12H52z"></path><rect x="38" y="36.125" width="2" height="18.875"></rect><path d="M40,23v-9c0-0.553-0.447-1-1-1H27c-0.552,0-1,0.447-1,1v5H15c-0.552,0-1,0.447-1,1v16h2V21h10v8h2V15h10v8H40z"></path><rect x="26" y="41" width="2" height="14"></rect><path d="M21.681,39.732L35.393,27H48c0.301,0,0.586-0.136,0.776-0.369L60,12.817V15h2v-5c0-0.553-0.447-1-1-1h-5v2h2.899L47.524,25   H35c-0.252,0-0.495,0.096-0.681,0.268L20.607,38H2v2h19C21.252,40,21.496,39.904,21.681,39.732z"></path><rect x="14" y="42" width="2" height="6"></rect></g></g><g id="SvgjsG5784" featureKey="nameFeature-0" transform="matrix(1.3749033700645306,0,0,1.3749033700645306,145.9651454445991,-4.468630199110116)" fill="#000000"><path d="M20.96 32.04 l0 7.96 l-18.28 0 l0 -0.48 c1.56 0 2 -1.36 2 -3.88 l0 -17.88 c0 -1.88 -0.48 -2.76 -1.48 -3.04 c0 0.12 0.04 0.2 0.04 0.32 c0 0.48 -0.4 0.84 -0.88 0.84 s-0.88 -0.36 -0.88 -0.84 c0 -0.52 0.4 -0.88 0.88 -0.88 l8.72 0 c0.52 0 0.88 0.4 0.88 0.88 s-0.4 0.84 -0.92 0.84 c-0.48 0 -0.88 -0.36 -0.88 -0.84 c0 -0.12 0.04 -0.2 0.08 -0.32 c-1.12 0.28 -1.88 1 -1.88 3.2 l0 21.6 l1.32 0 c3.8 0.12 9.68 0 10.76 -6.52 c-0.12 0 -0.16 0.04 -0.28 0.04 c-0.52 0 -0.88 -0.4 -0.88 -0.88 s0.36 -0.88 0.88 -0.88 c0.44 0 0.76 0.32 0.8 0.76 z M33.443 15.96 c-0.44 0 -0.88 -0.4 -0.88 -0.84 c0 -0.16 0.08 -0.24 0.08 -0.36 c-1.08 0.28 -1.76 0.92 -1.76 2.8 l0 18.52 c0 2.56 1.08 3.44 2.56 3.44 l0 0.48 l-8.88 0 l0 -0.48 c1.56 0 2.56 -0.88 2.56 -3.44 l0 -18.52 c0 -1.88 -0.6 -2.6 -1.76 -2.8 c0.04 0.04 0.04 0.16 0.04 0.36 c0 0.44 -0.36 0.84 -0.84 0.84 s-0.88 -0.4 -0.88 -0.84 c0 -0.52 0.4 -0.92 0.88 -0.92 l8.88 0 c0.48 0 0.92 0.4 0.92 0.92 c0 0.44 -0.44 0.84 -0.92 0.84 z M54.32600000000001 14.16 l9.12 0 l0 0.44 c-2.44 0 -3.4 0 -6.72 8.76 l-6.28 16.64 l-0.56 0 c-2.24 -5.44 -4.52 -11.04 -6.12 -15.4 c-1 -2.52 -1.92 -4.96 -2.76 -7.32 c-0.8 -2.04 -1.68 -2.48 -2.64 -2.6 c0.04 0.12 0.12 0.2 0.12 0.36 c0 0.48 -0.44 0.84 -0.92 0.84 s-0.88 -0.36 -0.88 -0.84 s0.36 -0.84 0.84 -0.88 l9.84 0 c0.48 0 0.92 0.36 0.92 0.88 c0 0.48 -0.44 0.84 -0.92 0.84 c-0.44 0 -0.88 -0.36 -0.88 -0.84 c0 -0.12 0.04 -0.2 0.04 -0.32 c-2.08 0.56 -1.36 2.88 -1.36 3.16 l6.56 17.52 l4.56 -12.08 c1.08 -3.4 3.36 -8.72 -1.96 -8.72 l0 -0.44 z M83.929 32.36 l0.48 0 l0 7.64 l-18.44 0 l0 -0.48 c1.56 0 2 -1.24 2 -3.8 l0 -17.6 c0 -1.88 -0.24 -2.96 -1.16 -3.32 c0 0.04 0.04 0.12 0.04 0.24 c0 0.48 -0.4 0.84 -0.88 0.84 s-0.88 -0.36 -0.88 -0.84 s0.4 -0.88 0.88 -0.88 l17.96 0 l0 6.64 c0 0.6 -0.28 0.88 -0.88 0.88 c-0.48 0 -0.84 -0.36 -0.84 -0.88 s0.36 -0.88 0.84 -0.88 c0.12 0 0.24 0 0.32 0.04 c-0.96 -5.28 -6.8 -5.32 -9.64 -5.32 l-1.96 0 l0 11.48 l2.32 0 c1 0 4.88 0.12 5.08 -2.92 l0.48 0 l0 3.44 l-8 0 l0 0.64 l8 0 l0 3.44 l-0.48 0 c-0.2 -3.08 -4.12 -2.92 -5.08 -2.92 l-2.32 0 l0 11.72 l1.64 0 c3.32 0 9.72 0.2 10.52 -7.16 z M111.775 14.280000000000001 c7.96 0 11.76 6.08 11.76 13.28 s-3.8 12.88 -11.76 12.88 c-7.92 0 -11.76 -5.68 -11.76 -12.88 s3.84 -13.28 11.76 -13.28 z M111.775 14.760000000000002 c-4.28 0 -7.56 2.88 -7.56 12.68 l15.12 0 c0 -9.8 -3.28 -12.68 -7.56 -12.68 z M119.33500000000001 27.880000000000003 l-15.12 0 l0 0.56 l15.12 0 l0 -0.56 z M111.775 39.96 c4.12 0 7.24 -2.2 7.56 -11.04 l-15.12 0 c0.32 8.84 3.4 11.04 7.56 11.04 z M143.698 14.16 l10.52 0 l0 0.4 c-5.36 0 -5.24 5.32 -5.24 8.72 l0 16.72 l-1.16 0 l-15.6 -20.12 l0 10.96 c0 3.24 0 8.68 4.8 8.68 l0 0.48 l-10.64 0 l0 -0.48 c5.36 0 5.36 -5.4 5.36 -8.68 l0 -11.48 l-1.52 -1.96 c-1.24 -1.56 -2.08 -2.24 -2.76 -2.56 l0 0.2 c0 0.48 -0.44 0.84 -0.92 0.84 s-0.88 -0.36 -0.88 -0.84 c0 -0.52 0.4 -0.88 0.88 -0.88 l0.08 0 l6.08 0 l15.8 20.48 l0 -11.36 c0 -3.4 0.12 -8.72 -4.8 -8.72 l0 -0.4 z"></path></g><g id="SvgjsG5785" featureKey="sloganFeature-0" transform="matrix(1.493192277213917,0,0,1.493192277213917,127.11380966967656,49.51866883375796)" fill="#d23535"><path d="M3.78 20 c-0.18 0 -0.3 -0.64 -0.14 -0.66 c1.38 -0.18 2.3 -0.46 2.3 -1.54 l0 -9.86 c0 -0.5 -0.18 -0.66 -0.66 -0.66 l-0.54 0 c-1.9 0 -2.96 0.44 -3.36 1.3 c-0.18 0.4 -0.86 0.34 -0.78 0 c0.18 -0.72 0.34 -1.34 0.46 -2.4 c0.04 -0.38 0.26 -0.36 0.62 -0.32 c0.92 0.1 1.76 0.14 5.56 0.14 s5.14 -0.04 6.1 -0.14 c0.36 -0.04 0.7 -0.06 0.58 0.32 c-0.3 0.94 -0.5 1.68 -0.62 2.4 c-0.06 0.34 -0.6 0.36 -0.68 0 c-0.2 -0.84 -1.08 -1.3 -2.8 -1.3 l-0.62 0 c-0.48 0 -0.78 0.16 -0.78 0.66 l0 9.86 c0 1.08 0.92 1.36 2.3 1.54 c0.16 0.02 0.04 0.66 -0.14 0.66 l-6.8 0 z M31.874000000000002 19.5 c0.16 0 0.12 0.54 0 0.58 c-1.26 0.42 -3 0.36 -4.2 -1.18 l-3.08 -3.96 c-0.86 -1.12 -1.88 -1.28 -3.28 -1.3 l0 3.88 c0 1.4 0.96 1.64 2.24 1.8 c0.14 0.02 0.04 0.68 -0.12 0.68 l-6.06 0 c-0.16 0 -0.28 -0.66 -0.12 -0.68 c1.02 -0.14 1.66 -0.54 1.66 -1.8 l0 -8.92 c0 -1.32 -0.7 -1.7 -1.66 -1.96 c-0.16 -0.04 -0.06 -0.7 0.12 -0.68 c0.78 0.1 1.66 0.12 2.3 0.12 c1.48 0 2.86 -0.12 3.82 -0.12 c3.02 0 5.04 1.24 5.04 3.7 c0 2.32 -1.88 3.46 -3.56 3.56 l0 0.1 c0.8 0 1.38 0.34 2.26 1.44 l2.98 3.74 c0.62 0.78 1.22 1 1.66 1 z M21.894000000000002 12.719999999999999 c2.98 0 4.12 -0.52 4.12 -2.52 c0 -2.14 -1.36 -3.2 -3.14 -3.2 c-1.18 0 -1.56 0.48 -1.56 1.6 l0 4.12 l0.58 0 z M49.548 19.32 c0.28 0.04 0.2 0.68 -0.04 0.68 l-5.28 0 c-0.26 0 -0.28 -0.64 -0.06 -0.68 c0.74 -0.14 1.54 -0.4 0.8 -2.12 l-0.22 -0.5 c-0.2 -0.48 -0.54 -0.52 -1.14 -0.52 l-4.08 0 c-0.6 0 -0.94 0.04 -1.14 0.52 l-0.2 0.5 c-0.7 1.72 0.06 1.98 1.02 2.12 c0.26 0.04 0.2 0.68 -0.06 0.68 l-4.32 0 c-0.24 0 -0.3 -0.64 -0.06 -0.68 c0.82 -0.14 1.3 -0.42 2.04 -2.12 l3.38 -7.76 c0.78 -1.76 1.02 -2.58 1.02 -3.34 c0 -0.12 1.4 -0.44 1.46 -0.3 l4.88 11.38 c0.72 1.7 1.2 2.02 2 2.14 z M43.468 15.059999999999999 c0.28 0 0.58 -0.04 0.46 -0.32 l-2.34 -5.6 l-2.36 5.6 c-0.12 0.28 0.18 0.32 0.46 0.32 l3.78 0 z M52.76200000000001 20.04 c-0.2 0.02 -0.28 -0.68 -0.12 -0.72 c1.16 -0.3 2.06 -0.48 2.06 -1.96 l0 -8.88 c0 -1.28 -0.82 -1.62 -1.68 -1.84 c-0.16 -0.04 -0.06 -0.7 0.1 -0.68 c0.82 0.1 1.66 0.12 2.5 0.12 c1.56 0 2.96 -0.12 3.98 -0.12 c4.84 0 7.46 2.88 7.46 6.74 c0 3.84 -2.62 7.34 -7.48 7.34 c-0.96 0 -2.2 -0.12 -3.68 -0.12 c-1.24 0 -2.22 0.02 -3.14 0.12 z M59.782000000000004 18.98 c3.26 0 4.88 -1.76 4.88 -5.14 c0 -3.82 -2.08 -6.82 -5.68 -6.82 c-1.42 0 -1.88 0.44 -1.88 1.46 l0 8.88 c0 1.08 0.74 1.62 2.68 1.62 z M70.596 20.04 c-0.2 0.02 -0.28 -0.68 -0.12 -0.72 c1.16 -0.3 2.06 -0.48 2.06 -1.96 l0 -8.88 c0 -1.28 -0.82 -1.62 -1.68 -1.84 c-0.16 -0.04 -0.06 -0.7 0.1 -0.68 c1.46 0.16 3.98 0.12 5.2 0.12 c1.82 0 3.14 -0.08 4.78 -0.12 c0.48 0 0.48 0.32 0.38 0.78 l-0.48 1.9 c-0.06 0.28 -0.56 0.28 -0.64 0 c-0.3 -0.98 -0.9 -1.54 -3.4 -1.54 c-1.4 0 -1.86 0.36 -1.86 1.4 l0 3.26 c0 0.52 0.26 0.62 0.66 0.62 l0.44 0 c1.62 0 3.02 -0.16 3.84 -0.9 c0.2 -0.18 0.64 -0.14 0.46 0.26 l-1.14 2.52 c-0.16 0.36 -0.46 0.32 -0.68 0.02 c-0.46 -0.64 -1.48 -0.9 -2.64 -0.9 l-0.28 0 c-0.4 0 -0.66 0.1 -0.66 0.62 l0 3.36 c0 1.14 0.48 1.56 2.14 1.56 c3.02 0 4.22 -1.38 4.7 -2.14 c0.14 -0.22 0.68 -0.12 0.68 0.22 c0 1.02 -0.86 3.04 -2.12 3.04 c-1.12 -0.06 -2.22 -0.12 -3.9 -0.12 c-1.84 0 -4.02 -0.06 -5.84 0.12 z M100.59 19.5 c0.16 0 0.12 0.54 0 0.58 c-1.26 0.42 -3 0.36 -4.2 -1.18 l-3.08 -3.96 c-0.86 -1.12 -1.88 -1.28 -3.28 -1.3 l0 3.88 c0 1.4 0.96 1.64 2.24 1.8 c0.14 0.02 0.04 0.68 -0.12 0.68 l-6.06 0 c-0.16 0 -0.28 -0.66 -0.12 -0.68 c1.02 -0.14 1.66 -0.54 1.66 -1.8 l0 -8.92 c0 -1.32 -0.7 -1.7 -1.66 -1.96 c-0.16 -0.04 -0.06 -0.7 0.12 -0.68 c0.78 0.1 1.66 0.12 2.3 0.12 c1.48 0 2.86 -0.12 3.82 -0.12 c3.02 0 5.04 1.24 5.04 3.7 c0 2.32 -1.88 3.46 -3.56 3.56 l0 0.1 c0.8 0 1.38 0.34 2.26 1.44 l2.98 3.74 c0.62 0.78 1.22 1 1.66 1 z M90.61 12.719999999999999 c2.98 0 4.12 -0.52 4.12 -2.52 c0 -2.14 -1.36 -3.2 -3.14 -3.2 c-1.18 0 -1.56 0.48 -1.56 1.6 l0 4.12 l0.58 0 z M107.94400000000002 20.32 c-1.64 0 -4.14 -0.72 -3.9 -1.6 l0.2 -0.74 c0.56 -2.1 1.22 0.98 4.52 0.98 c1.68 0 2.5 -0.82 2.5 -1.98 c0 -0.94 -0.6 -1.34 -2.02 -2.22 l-1.94 -1.22 c-2.16 -1.36 -3.04 -2.2 -3.04 -3.7 c0 -2.46 2.4 -4.16 4.88 -4.16 c1.52 0 3.46 0.66 3.24 1.34 l-0.24 0.76 c-0.62 1.94 -1.12 -0.74 -3.86 -0.74 c-1.42 0 -2.16 0.72 -2.16 1.78 c0 0.9 0.54 1.4 1.88 2.22 l2.1 1.3 c2.12 1.32 2.98 2.22 2.98 3.66 c0 2.5 -2.46 4.32 -5.14 4.32 z M122.352 20.04 c-0.2 0.02 -0.28 -0.68 -0.12 -0.72 c1.16 -0.3 2.06 -0.48 2.06 -1.96 l0 -8.88 c0 -1.4 -0.82 -1.68 -1.68 -1.8 c-0.16 -0.02 -0.04 -0.68 0.1 -0.68 l5.52 0 c0.14 0 0.24 0.66 0.1 0.68 c-0.84 0.1 -1.64 0.4 -1.64 1.8 l0 8.88 c0 1.14 0.48 1.56 2.14 1.56 c3.02 0 4.22 -1.38 4.7 -2.14 c0.14 -0.22 0.68 -0.12 0.68 0.22 c0 1.02 -0.86 3.04 -2.12 3.04 c-1.12 -0.06 -2.22 -0.12 -3.9 -0.12 c-1.84 0 -4.02 -0.06 -5.84 0.12 z M140.42600000000002 20 c-0.18 0 -0.3 -0.64 -0.14 -0.66 c1.38 -0.18 2.3 -0.46 2.3 -1.54 l0 -9.86 c0 -0.5 -0.18 -0.66 -0.66 -0.66 l-0.54 0 c-1.9 0 -2.96 0.44 -3.36 1.3 c-0.18 0.4 -0.86 0.34 -0.78 0 c0.18 -0.72 0.34 -1.34 0.46 -2.4 c0.04 -0.38 0.26 -0.36 0.62 -0.32 c0.92 0.1 1.76 0.14 5.56 0.14 s5.14 -0.04 6.1 -0.14 c0.36 -0.04 0.7 -0.06 0.58 0.32 c-0.3 0.94 -0.5 1.68 -0.62 2.4 c-0.06 0.34 -0.6 0.36 -0.68 0 c-0.2 -0.84 -1.08 -1.3 -2.8 -1.3 l-0.62 0 c-0.48 0 -0.78 0.16 -0.78 0.66 l0 9.86 c0 1.08 0.92 1.36 2.3 1.54 c0.16 0.02 0.04 0.66 -0.14 0.66 l-6.8 0 z M153.72 20.04 c-0.2 0.02 -0.28 -0.68 -0.12 -0.72 c1.16 -0.3 2.06 -0.48 2.06 -1.96 l0 -8.88 c0 -1.28 -0.82 -1.62 -1.68 -1.84 c-0.16 -0.04 -0.06 -0.7 0.1 -0.68 c0.82 0.1 1.66 0.12 2.5 0.12 c1.56 0 2.96 -0.12 3.98 -0.12 c4.84 0 7.46 2.88 7.46 6.74 c0 3.84 -2.62 7.34 -7.48 7.34 c-0.96 0 -2.2 -0.12 -3.68 -0.12 c-1.24 0 -2.22 0.02 -3.14 0.12 z M160.74 18.98 c3.26 0 4.88 -1.76 4.88 -5.14 c0 -3.82 -2.08 -6.82 -5.68 -6.82 c-1.42 0 -1.88 0.44 -1.88 1.46 l0 8.88 c0 1.08 0.74 1.62 2.68 1.62 z"></path></g>
			</g>
		</svg>
	